<?xml version="1.0" encoding="UTF-8"?>
<!DOCTYPE svg PUBLIC "-//W3C//DTD SVG 1.1//EN" "http://www.w3.org/Graphics/SVG/1.1/DTD/svg11.dtd">
<!-- Creator: CorelDRAW 2021 (64-Bit) -->
<svg xmlns="http://www.w3.org/2000/svg" xml:space="preserve" width="5.90974in" height="1.64606in" version="1.1" style="shape-rendering:geometricPrecision; text-rendering:geometricPrecision; image-rendering:optimizeQuality; fill-rule:evenodd; clip-rule:evenodd"
viewBox="0 0 5549.21 1545.64"
 xmlns:xlink="http://www.w3.org/1999/xlink"
 xmlns:xodm="http://www.corel.com/coreldraw/odm/2003">
 <defs>
  <style type="text/css">
   <![CDATA[
    .fil2 {fill:#FDFDFD}
    .fil1 {fill:#FF8000}
    .fil4 {fill:#2B2A29;fill-rule:nonzero}
    .fil3 {fill:black;fill-rule:nonzero}
    .fil0 {fill:#474258;fill-rule:nonzero}
   ]]>
  </style>
 </defs>
 <g id="Layer_x0020_1">
  <metadata id="CorelCorpID_0Corel-Layer"/>
  <g id="_1520447067968">
   <path class="fil0" d="M1065.25 501.39c26.02,-6.82 42.15,-16 49.13,-27.11 6.39,-10.94 6.76,-28.35 0.54,-52.06 -22.31,-85 -76.93,-156.57 -164.01,-212.82 -86.66,-56.99 -197.56,-67.43 -333.44,-31.77 -94.25,24.74 -179.13,94.6 -255.95,209.33 -76.66,115.3 -93.88,254.56 -51.08,417.62 31.26,119.12 111.96,212.28 242.24,280.06 130.12,67.22 261.11,83.52 391.79,49.22 98.88,-25.95 197.66,-85.26 296.49,-177.33 37.72,-35.25 63.59,-54.4 76.9,-57.88 20.23,-5.32 37.94,-3.78 52.54,4.75 15.03,7.8 24.61,20.74 29.01,37.51 10.77,41.05 -38.47,107.75 -147.89,199.51 -109.41,91.76 -230.04,154.95 -362.46,189.71 -195.44,51.29 -377.12,27.9 -545.75,-70.62 -168.47,-97.94 -276.56,-238.91 -324.97,-423.38 -44.16,-168.26 -8.51,-331.52 106.36,-489.61 114.88,-158.08 263.46,-260.75 445.03,-308.4 236.5,-62.07 429.21,-48.38 578.32,41.67 149.1,90.05 246.02,219.12 290.03,386.81 9.56,36.42 6.07,60.83 -9.57,74.21 -15.65,13.38 -47.54,26.07 -96.11,38.83l-774.83 203.37c-63.03,16.54 -100.49,1.03 -112.93,-46.38 -11.84,-45.11 15.21,-76.31 80.54,-93.46l540.08 -141.75zm606.59 216.68l-5.01 -96.04 -150.49 1.06c-29.48,0.2 -49.8,19.08 -49.8,48.95l-0.09 587.44 201.11 1.56c0.2,-98.72 0.48,-197.02 -0.02,-295.17 -0.51,-99.31 8.13,-182.24 117.57,-185.28 113.25,-3.14 127,77.57 126.75,175.42 -0.27,101.5 -0.24,203.02 -0.16,304.53l198.94 -0.13c0.23,-254.03 66.62,-654.38 -247.63,-645.09 -100.44,2.98 -148.95,47.73 -191.17,102.73zm1498.05 542.49l198.82 -0.13 0.14 -796.32c0,-30.15 -20.54,-48.75 -50.09,-48.75l-148.94 0 0.07 845.19zm491.83 -368.32c23.53,-161.77 228.99,-164.81 241.52,-0.12l-241.52 0.12zm431.76 138.52c-295.5,0.09 -168.71,-3.04 -244.63,55.58 -25.33,19.55 -57,24.03 -91.37,19.8 -68.94,-8.49 -96.96,-55.4 -94.54,-127.37l390.44 0.02c29.63,0 49,-19.76 49.06,-51.28 0.35,-162.32 -89.61,-291.55 -268.47,-311 -198.15,-21.53 -337.68,87.29 -363.93,256.89 -73.52,475.04 558.76,516.07 623.44,157.37zm278.8 229.01l247.23 0.69 224.35 -637.36c-119.04,-0.67 -170.58,-10.03 -198.7,2.91 -34.21,15.76 -33.74,64.58 -77.91,202.36 -23.21,72.4 -41.3,151.1 -70.6,225.05 -26.65,-64.85 -47.83,-144.83 -71.63,-218.01 -44.82,-137.81 -44.64,-189.31 -75.39,-207.36 -26.81,-15.75 -77.19,-6.06 -201.5,-6.02l224.16 637.74zm799.92 -463.63c186.35,-71.26 236.92,252.19 84.47,292.03 -191.11,49.93 -223.13,-239.02 -84.47,-292.03zm-19.42 -176.65c-181.72,31.05 -298.15,176.27 -260.84,393.94 29.26,170.7 183.88,284.12 392.8,249.74 404.04,-66.44 333.41,-723.24 -131.96,-643.68z"/>
   <path class="fil1" d="M2737.96 618.77l-84.64 4.38 0.1 166.44 84.18 2.64c2.74,101.71 -12.79,290.06 27.36,365.68 53.63,101.01 161.6,102.26 299.25,102.44l1.21 -171.38c-145.94,-0.69 -134.75,16.47 -127.27,-297.57l125.18 -1.12 1.11 -168.42 -124.83 -0.06 -2.67 -154.14 -147.83 -0.52c-31.33,-0.11 -49.7,19.92 -49.99,46.9l-1.17 104.71zm-467.99 0.98l-84.91 3.1 0.72 166.39 84.05 2.8c11.11,318.95 -65.7,467.93 326.24,468.19l1.7 -171.24c-147.07,-0.65 -134.34,16.43 -127.56,-296.53l125.29 -2.36 0.77 -168.29 -124.92 -0.1 -1.73 -105.73c-0.45,-27.84 -18.04,-48.38 -49.72,-48.49l-148.41 -0.47 -1.52 152.73z"/>
   <path class="fil2" d="M3661.73 892.23l241.52 -0.12c-12.54,-164.69 -218,-161.64 -241.52,0.12z"/>
   <g>
    <path class="fil3" d="M1590.25 1373.4c-1.43,0.2 -3.49,0.63 -6.18,1.32 -2.71,0.66 -4.97,1.84 -6.78,3.49 -1.88,1.62 -3.22,4.51 -3.97,8.7 -0.78,4.15 -1.15,10.45 -1.15,18.78l0 50.92c0,15 -3.87,27.03 -11.63,36.16 -7.76,9.13 -18.03,13.71 -30.78,13.71 -14.89,0 -26.42,-4.41 -34.55,-13.22 -8.16,-8.8 -12.23,-21.09 -12.23,-36.85l0 -70c0,-2.24 -0.33,-4.18 -0.98,-5.8 -0.68,-1.58 -1.93,-3.04 -3.79,-4.32 -1.28,-0.86 -2.84,-1.52 -4.7,-2.04 -1.86,-0.5 -3.36,-0.86 -4.54,-1.05l0 -7.52 54.54 0 0 7.52c-1.58,0.13 -3.16,0.36 -4.79,0.72 -1.63,0.36 -3.26,0.89 -4.95,1.58 -1.86,0.79 -3.11,2.07 -3.77,3.86 -0.62,1.81 -0.95,3.82 -0.95,6.1l0 69.08c0,13.58 2.28,23.47 6.86,29.63 4.59,6.16 11.22,9.26 19.93,9.26 8.56,0 15.27,-3.39 20.14,-10.22 4.87,-6.82 7.31,-16.88 7.31,-30.12l0 -46.41c0,-8.24 -0.43,-14.4 -1.28,-18.49 -0.85,-4.08 -2.19,-7.02 -3.94,-8.83 -1.28,-1.39 -3.49,-2.67 -6.65,-3.86 -3.16,-1.15 -5.37,-1.84 -6.65,-2.11l0 -7.71 45.5 0 0 7.71zm181.77 129.33l-44.29 0 0 -7.12c0.93,-0.13 2.09,-0.3 3.42,-0.49 1.33,-0.2 2.34,-0.5 3.04,-0.96 1.03,-0.69 1.78,-1.74 2.21,-3.1 0.45,-1.35 0.68,-3.33 0.68,-6l0 -45.19c0,-6.56 -0.91,-11.5 -2.74,-14.83 -1.83,-3.33 -4.54,-4.98 -8.11,-4.98 -1.96,0 -3.77,0.4 -5.45,1.15 -1.68,0.79 -3.34,1.91 -4.95,3.4 -1.43,1.28 -2.56,2.6 -3.42,3.96 -0.85,1.35 -1.58,2.54 -2.16,3.56l0 51.88c0,2.27 0.25,4.15 0.73,5.67 0.48,1.52 1.28,2.64 2.41,3.43 0.78,0.56 1.76,1.09 2.91,1.55 1.18,0.43 2.31,0.76 3.44,0.95l0 7.12 -44.74 0 0 -7.12c1.23,-0.13 2.46,-0.3 3.69,-0.52 1.25,-0.23 2.31,-0.53 3.21,-0.92 1.56,-0.69 2.64,-1.78 3.21,-3.26 0.58,-1.48 0.88,-3.39 0.88,-5.77l0 -56.03c0,-2.01 -0.4,-3.96 -1.18,-5.87 -0.78,-1.94 -1.81,-3.49 -3.09,-4.71 -0.88,-0.79 -1.99,-1.42 -3.34,-1.94 -1.36,-0.49 -2.84,-0.85 -4.44,-1.05l0 -7.12 35.2 -2.57 1.11 1.45 0 13.88 0.3 0c1.36,-1.62 3.02,-3.53 4.98,-5.8 1.96,-2.24 3.76,-4.08 5.42,-5.5 1.81,-1.55 4.17,-2.87 7.11,-3.96 2.94,-1.09 6.06,-1.65 9.39,-1.65 7.96,0 13.94,2.96 17.9,8.93 4,5.97 5.98,13.84 5.98,23.7l0 47.33c0,2.37 0.28,4.28 0.8,5.7 0.55,1.42 1.56,2.54 3.04,3.39 0.78,0.43 1.76,0.89 2.91,1.35 1.16,0.43 2.46,0.76 3.94,0.95l0 7.12zm131.98 0l-46.25 0 0 -7.12c1.28,-0.13 2.51,-0.3 3.72,-0.49 1.21,-0.2 2.28,-0.5 3.21,-0.96 1.58,-0.76 2.66,-1.88 3.21,-3.33 0.58,-1.45 0.85,-3.36 0.85,-5.74l0 -106.85c0,-2.44 -0.37,-4.71 -1.13,-6.79 -0.75,-2.07 -1.78,-3.69 -3.04,-4.78 -0.98,-0.82 -2.46,-1.65 -4.44,-2.41 -1.98,-0.76 -3.74,-1.22 -5.25,-1.35l0 -7.12 37.01 -2.57 1.11 1.55 0 129.07c0,2.37 0.33,4.31 0.95,5.77 0.65,1.48 1.69,2.64 3.12,3.49 0.98,0.56 2.01,1.09 3.09,1.55 1.08,0.43 2.36,0.76 3.84,0.95l0 7.12zm162.41 -84.31c3.62,4.45 6.4,9.76 8.31,15.95 1.91,6.16 2.87,12.85 2.87,20.07 0,7.15 -0.96,13.87 -2.84,20.24 -1.88,6.33 -4.65,11.73 -8.26,16.25 -3.87,4.81 -8.48,8.54 -13.86,11.11 -5.37,2.57 -11.5,3.86 -18.4,3.86 -5.98,0 -11.47,-1.12 -16.52,-3.39 -5.02,-2.24 -9.47,-5.6 -13.33,-10.12 -3.72,-4.32 -6.65,-9.63 -8.81,-15.99 -2.16,-6.33 -3.24,-13.42 -3.24,-21.29 0,-7.71 0.95,-14.57 2.84,-20.6 1.88,-6 4.72,-11.37 8.49,-16.08 3.62,-4.48 8.08,-7.98 13.41,-10.45 5.32,-2.47 11.28,-3.72 17.83,-3.72 6.86,0 12.91,1.25 18.13,3.72 5.22,2.47 9.69,5.97 13.41,10.45zm-18.81 66.84c1.08,-3.59 1.88,-7.94 2.38,-13.09 0.53,-5.14 0.78,-11.11 0.78,-17.93 0,-4.48 -0.25,-9.63 -0.72,-15.39 -0.5,-5.8 -1.23,-10.35 -2.21,-13.71 -1.18,-4.02 -2.81,-7.22 -4.89,-9.52 -2.09,-2.31 -4.72,-3.46 -7.91,-3.46 -3.49,0 -6.28,1.25 -8.36,3.76 -2.09,2.51 -3.69,5.73 -4.82,9.72 -1.03,3.66 -1.73,7.94 -2.13,12.85 -0.38,4.91 -0.58,10.05 -0.58,15.36 0,7.02 0.17,12.82 0.52,17.4 0.33,4.58 1.16,9.19 2.49,13.81 1.13,3.99 2.76,7.15 4.87,9.46 2.11,2.31 4.77,3.46 8.01,3.46 2.94,0 5.48,-1.09 7.58,-3.23 2.11,-2.14 3.77,-5.3 5,-9.49zm161.81 20.63c-6.81,0 -12.83,-1.32 -18.06,-3.92 -5.22,-2.6 -9.52,-6.16 -12.91,-10.65 -3.36,-4.58 -5.9,-9.99 -7.56,-16.21 -1.69,-6.26 -2.51,-13.05 -2.51,-20.37 0,-6.69 1.03,-13.08 3.06,-19.12 2.03,-6.06 4.77,-11.37 8.26,-15.92 3.59,-4.71 8.03,-8.47 13.36,-11.27 5.32,-2.8 11.17,-4.18 17.6,-4.18 9.04,0 16.17,2.24 21.42,6.72 5.25,4.48 7.86,10.51 7.86,18.13 0,4.65 -0.93,8.41 -2.79,11.24 -1.86,2.84 -5.07,4.25 -9.62,4.25 -3.67,0 -6.73,-1.15 -9.19,-3.49 -2.49,-2.31 -3.72,-5.34 -3.72,-9.09 0,-3.16 0.4,-6.3 1.18,-9.39 0.78,-3.1 1.23,-5.44 1.38,-7.05 -0.53,-1.19 -1.21,-2.08 -2.06,-2.67 -0.83,-0.63 -2.11,-0.92 -3.87,-0.92 -2.21,0 -4.22,0.69 -6.03,2.04 -1.81,1.35 -3.49,3.72 -5.05,7.12 -1.53,3.23 -2.74,7.55 -3.64,12.95 -0.91,5.4 -1.35,11.93 -1.35,19.51 0,11.47 2.03,20.7 6.13,27.72 4.09,7.02 8.96,10.55 14.64,10.55 5.42,0 9.74,-1.58 12.95,-4.78 3.19,-3.2 6.05,-7.74 8.54,-13.61l5.5 5.01c-1.53,3.92 -3.34,7.52 -5.45,10.78 -2.11,3.23 -4.62,6.13 -7.56,8.63 -3.09,2.64 -6.23,4.62 -9.42,5.97 -3.19,1.35 -6.9,2.04 -11.12,2.04zm212.73 -3.16l-34.55 0c-4.3,-9.82 -8.19,-18.16 -11.75,-25.02 -3.54,-6.85 -6.88,-13.18 -10.02,-19.05l-4.39 4.88 0 20.99c0,2.31 0.25,4.18 0.78,5.67 0.5,1.48 1.51,2.57 2.99,3.3 0.88,0.49 1.91,0.95 3.09,1.35 1.18,0.36 2.36,0.63 3.54,0.76l0 7.12 -45.65 0 0 -7.12c1.23,-0.13 2.46,-0.3 3.69,-0.52 1.23,-0.23 2.31,-0.53 3.24,-0.92 1.58,-0.69 2.67,-1.78 3.22,-3.26 0.58,-1.48 0.85,-3.43 0.85,-5.8l0 -107.51c0,-2.14 -0.35,-4.31 -1.06,-6.62 -0.73,-2.27 -1.76,-3.99 -3.11,-5.14 -0.93,-0.79 -2.33,-1.42 -4.19,-1.94 -1.86,-0.5 -3.54,-0.82 -5.05,-0.96l0 -7.12 36.56 -2.57 1.11 1.55 0 99.83c3.64,-4.25 7.71,-9.16 12.25,-14.77 4.54,-5.6 8.18,-10.22 10.92,-13.91 1.63,-2.17 2.53,-3.86 2.69,-4.98 0.17,-1.12 0.27,-1.81 0.27,-2.08 0,-1.15 -0.78,-2.14 -2.33,-2.9 -1.53,-0.79 -3.84,-1.45 -6.93,-2.04l0 -6.92 37.36 0 0 6.72c-4.92,1.81 -8.66,3.49 -11.25,5.04 -2.56,1.58 -5.38,3.69 -8.44,6.33 -2.01,1.75 -3.97,3.56 -5.85,5.44 -1.88,1.91 -4.04,4.28 -6.48,7.12 4.79,9.1 9.21,17.53 13.28,25.31 4.07,7.74 8.34,15.99 12.78,24.65 1.53,3 3.42,5.01 5.67,6.06 2.23,1.02 4.5,1.65 6.75,1.91l0 7.12zm127.58 0l-46.25 0 0 -7.12c1.26,-0.13 2.48,-0.3 3.69,-0.49 1.21,-0.17 2.24,-0.5 3.12,-0.96 1.53,-0.76 2.64,-1.88 3.26,-3.33 0.63,-1.42 0.93,-3.33 0.93,-5.7l0 -56.03c0,-2.24 -0.4,-4.22 -1.18,-5.93 -0.78,-1.68 -1.76,-3.06 -2.91,-4.08 -0.88,-0.76 -2.21,-1.52 -3.99,-2.21 -1.78,-0.73 -3.42,-1.15 -4.87,-1.35l0 -7.12 36.11 -2.57 1.1 1.45 0 76.57c0,2.24 0.35,4.15 1.08,5.73 0.73,1.58 1.76,2.77 3.12,3.53 0.98,0.56 2.03,1.09 3.19,1.55 1.15,0.43 2.36,0.76 3.62,0.95l0 7.12zm-10.55 -131.57c0,4.91 -1.43,9.06 -4.32,12.49 -2.86,3.46 -6.25,5.18 -10.17,5.18 -3.99,0 -7.4,-1.72 -10.27,-5.18 -2.89,-3.43 -4.32,-7.58 -4.32,-12.49 0,-4.88 1.43,-9.06 4.32,-12.52 2.86,-3.46 6.28,-5.21 10.27,-5.21 3.97,0 7.38,1.74 10.22,5.21 2.84,3.46 4.27,7.65 4.27,12.52zm194.73 131.57l-44.29 0 0 -7.12c0.93,-0.13 2.09,-0.3 3.42,-0.49 1.33,-0.2 2.34,-0.5 3.04,-0.96 1.03,-0.69 1.78,-1.74 2.21,-3.1 0.45,-1.35 0.68,-3.33 0.68,-6l0 -45.19c0,-6.56 -0.91,-11.5 -2.74,-14.83 -1.83,-3.33 -4.54,-4.98 -8.11,-4.98 -1.96,0 -3.77,0.4 -5.45,1.15 -1.68,0.79 -3.34,1.91 -4.95,3.4 -1.43,1.28 -2.56,2.6 -3.42,3.96 -0.85,1.35 -1.58,2.54 -2.16,3.56l0 51.88c0,2.27 0.25,4.15 0.73,5.67 0.48,1.52 1.28,2.64 2.41,3.43 0.78,0.56 1.76,1.09 2.91,1.55 1.18,0.43 2.31,0.76 3.44,0.95l0 7.12 -44.74 0 0 -7.12c1.23,-0.13 2.46,-0.3 3.69,-0.52 1.25,-0.23 2.31,-0.53 3.21,-0.92 1.56,-0.69 2.64,-1.78 3.21,-3.26 0.58,-1.48 0.88,-3.39 0.88,-5.77l0 -56.03c0,-2.01 -0.4,-3.96 -1.18,-5.87 -0.78,-1.94 -1.81,-3.49 -3.09,-4.71 -0.88,-0.79 -1.99,-1.42 -3.34,-1.94 -1.36,-0.49 -2.84,-0.85 -4.44,-1.05l0 -7.12 35.2 -2.57 1.11 1.45 0 13.88 0.3 0c1.36,-1.62 3.01,-3.53 4.98,-5.8 1.96,-2.24 3.76,-4.08 5.42,-5.5 1.81,-1.55 4.17,-2.87 7.11,-3.96 2.94,-1.09 6.06,-1.65 9.39,-1.65 7.96,0 13.94,2.96 17.9,8.93 4,5.97 5.98,13.84 5.98,23.7l0 47.33c0,2.37 0.28,4.28 0.8,5.7 0.55,1.42 1.56,2.54 3.04,3.39 0.78,0.43 1.76,0.89 2.91,1.35 1.16,0.43 2.46,0.76 3.94,0.95l0 7.12zm169.49 -84.83l-16.12 0c1.91,2.8 3.34,5.77 4.3,8.9 0.95,3.13 1.43,6.36 1.43,9.76 0,4.45 -0.91,8.6 -2.71,12.49 -1.83,3.89 -4.19,7.05 -7.13,9.49 -2.99,2.5 -6.5,4.48 -10.52,5.9 -4.02,1.42 -8.38,2.11 -13.08,2.11l-12.03 0c-0.6,0.56 -1.25,1.48 -1.96,2.74 -0.73,1.25 -1.08,2.47 -1.08,3.63 0,2.8 0.85,4.78 2.58,5.87 1.71,1.09 4.82,1.68 9.31,1.81 4.47,0.13 8.99,0.36 13.54,0.72 4.57,0.36 7.83,0.56 9.79,0.62 2.84,0.2 5.65,0.96 8.46,2.28 2.79,1.32 5.22,3.06 7.28,5.17 2.24,2.27 4.12,5.14 5.57,8.67 1.48,3.53 2.21,7.58 2.21,12.16 0,4.91 -0.9,9.52 -2.68,13.84 -1.79,4.32 -4.52,8.07 -8.18,11.24 -3.87,3.3 -8.51,5.83 -13.94,7.65 -5.4,1.81 -12.1,2.7 -20.08,2.7 -12.88,0 -22.7,-2.08 -29.4,-6.2 -6.7,-4.12 -10.07,-10.32 -10.07,-18.59 0,-5.08 1.81,-9.29 5.42,-12.55 3.64,-3.3 9.26,-5.11 16.9,-5.44l0 -1.15c-4.52,-2.01 -8.04,-4.65 -10.55,-7.98 -2.54,-3.29 -3.79,-7.15 -3.79,-11.53 0,-2.7 0.5,-4.98 1.51,-6.86 1,-1.88 2.31,-3.53 3.89,-4.94 1.35,-1.22 3.04,-2.27 4.99,-3.13 1.99,-0.86 3.62,-1.55 4.95,-2.08l0 -1.05c-6.6,-3.23 -11.47,-7.15 -14.59,-11.77 -3.11,-4.61 -4.67,-10.28 -4.67,-16.97 0,-9.46 3.31,-17.01 9.97,-22.68 6.62,-5.63 15.04,-8.47 25.23,-8.47 3.34,0 6.55,0.36 9.67,1.12 3.11,0.76 5.47,1.45 7.11,2.04l28.47 0 0 10.48zm-34.5 18.09c0,-7.55 -0.91,-13.48 -2.71,-17.86 -1.83,-4.38 -4.62,-6.56 -8.38,-6.56 -1.91,0 -3.59,0.6 -4.99,1.78 -1.43,1.19 -2.59,2.9 -3.47,5.17 -0.83,2.18 -1.4,4.75 -1.68,7.65 -0.3,2.93 -0.45,5.93 -0.45,9.03 0,7.02 0.93,12.79 2.79,17.27 1.86,4.52 4.52,6.76 7.96,6.76 3.51,0 6.23,-2.01 8.11,-6.07 1.88,-4.05 2.84,-9.79 2.84,-17.17zm12.35 81.31c0,-2.21 -0.48,-4.38 -1.41,-6.53 -0.93,-2.17 -3.01,-3.92 -6.23,-5.3 -1.78,-0.36 -4.67,-0.62 -8.71,-0.76 -4.04,-0.13 -9.59,-0.2 -16.65,-0.2 -1.7,1.94 -3.14,4.22 -4.3,6.89 -1.15,2.64 -1.73,5.83 -1.73,9.59 0,1.62 0.35,3.36 1.03,5.3 0.68,1.94 1.76,3.76 3.24,5.44 1.71,1.88 3.62,3.33 5.72,4.42 2.11,1.05 5.3,1.58 9.57,1.58 6.3,0 11.12,-1.62 14.46,-4.84 3.34,-3.23 5,-8.44 5,-15.59zm472.37 -14.57l-56.5 0 0 -7.52c1.23,-0.13 3.04,-0.33 5.4,-0.59 2.36,-0.23 3.99,-0.63 4.87,-1.15 1.81,-0.96 3.06,-2.24 3.76,-3.82 0.68,-1.58 1.03,-3.59 1.03,-6.03l0 -47.33 -44.74 0 0 46.24c0,2.21 0.35,4.18 1.08,5.9 0.7,1.74 1.93,3.1 3.64,4.08 0.95,0.5 2.53,1.06 4.79,1.65 2.29,0.56 4.12,0.92 5.55,1.05l0 7.52 -56.5 0 0 -7.52c1.23,-0.07 3.04,-0.26 5.43,-0.62 2.38,-0.36 4.14,-0.79 5.22,-1.32 1.76,-0.82 2.99,-2.11 3.69,-3.79 0.68,-1.72 1.03,-3.72 1.03,-6.06l0 -96.96c0,-2.27 -0.3,-4.16 -0.93,-5.7 -0.6,-1.55 -1.88,-2.9 -3.79,-4.05 -1.43,-0.86 -3.31,-1.62 -5.62,-2.27 -2.31,-0.7 -3.99,-1.09 -5.02,-1.22l0 -7.52 56.5 0 0 7.52c-1.53,0.13 -3.34,0.46 -5.48,0.95 -2.11,0.53 -3.74,1.02 -4.87,1.45 -1.91,0.85 -3.19,2.17 -3.8,4.02 -0.62,1.82 -0.92,3.76 -0.92,5.83l0 40.93 44.74 0 0 -39.98c0,-2.24 -0.33,-4.16 -0.95,-5.7 -0.65,-1.52 -1.94,-2.87 -3.84,-4.05 -1.28,-0.76 -2.99,-1.48 -5.15,-2.14 -2.13,-0.69 -3.84,-1.12 -5.12,-1.32l0 -7.52 56.5 0 0 7.52c-1.58,0.13 -3.34,0.4 -5.32,0.82 -1.96,0.43 -3.74,0.95 -5.32,1.58 -1.86,0.85 -3.12,2.17 -3.77,3.95 -0.62,1.82 -0.95,3.79 -0.95,5.9l0 97.1c0,2.31 0.33,4.28 0.95,5.9 0.65,1.62 1.91,2.96 3.77,4.05 1.18,0.63 2.91,1.22 5.15,1.75 2.23,0.49 4.07,0.82 5.5,0.95l0 7.52zm172.68 -88.59c-2.21,0.46 -4.34,1.55 -6.43,3.26 -2.11,1.75 -3.82,4.45 -5.2,8.11 -4.22,11.7 -8.57,24.16 -13.03,37.34 -4.47,13.22 -9.42,27.49 -14.86,42.85 -3.04,8.64 -6,15.56 -8.84,20.7 -2.86,5.18 -5.52,9.13 -8.03,11.9 -2.36,2.57 -4.7,4.45 -7.01,5.6 -2.31,1.15 -4.65,1.75 -7.01,1.75 -4.67,0 -8.44,-1.72 -11.3,-5.14 -2.89,-3.39 -4.32,-7.25 -4.32,-11.5 0,-1.82 0.15,-3.5 0.48,-5.05 0.33,-1.55 1,-3.16 2.03,-4.81 0.78,-1.42 1.99,-2.64 3.64,-3.63 1.63,-1.02 3.49,-1.52 5.55,-1.52 2.76,0 5.38,1.25 7.88,3.79 2.51,2.51 5.1,6 7.81,10.45 1.61,-2.14 3.62,-5.34 6,-9.59 2.38,-4.25 4.14,-8.6 5.27,-13.08 -5.85,-16.02 -11,-29.93 -15.52,-41.69 -4.49,-11.8 -9.54,-24.92 -15.14,-39.42 -1.23,-3.1 -2.86,-5.47 -4.92,-7.18 -2.06,-1.72 -4.24,-2.74 -6.55,-3.13l0 -7.12 45.04 0 0 7.12c-1.66,0.06 -3.56,0.56 -5.74,1.45 -2.16,0.89 -3.24,2.04 -3.24,3.46 0,0.53 0.05,1.09 0.2,1.68 0.15,0.62 0.43,1.52 0.8,2.64 1.68,4.48 4.04,10.71 7.08,18.65 3.06,7.97 6.63,17.3 10.69,27.98 3.02,-9.1 5.6,-16.91 7.71,-23.47 2.14,-6.52 4.2,-12.98 6.2,-19.31 0.5,-1.58 0.78,-2.87 0.85,-3.79 0.07,-0.92 0.1,-1.55 0.1,-1.88 0,-1.16 -0.43,-2.18 -1.28,-3.04 -0.85,-0.85 -1.88,-1.62 -3.04,-2.27 -1.23,-0.62 -2.41,-1.12 -3.54,-1.45 -1.13,-0.3 -2.06,-0.53 -2.79,-0.66l0 -7.12 30.43 0 0 7.12zm171.46 41.56c0,13.61 -3.44,25.28 -10.35,35 -6.9,9.72 -15.64,14.6 -26.24,14.6 -4.69,0 -8.51,-0.62 -11.45,-1.88 -2.94,-1.25 -5.37,-2.8 -7.28,-4.61l-0.58 0 0 27.03c0,2.24 0.38,4.18 1.13,5.87 0.76,1.65 1.83,2.87 3.19,3.66 1.33,0.69 3.19,1.32 5.6,1.91 2.43,0.56 4.44,0.92 6.05,1.06l0 7.32 -53.03 0 0 -7.32c1.23,-0.13 2.76,-0.37 4.62,-0.73 1.83,-0.36 3.24,-0.72 4.17,-1.09 1.56,-0.72 2.61,-1.91 3.16,-3.62 0.58,-1.72 0.85,-3.66 0.85,-5.83l0 -98.55c-0.15,-2.11 -0.52,-3.96 -1.13,-5.57 -0.6,-1.62 -1.58,-3.03 -2.89,-4.25 -0.98,-0.82 -2.28,-1.52 -3.89,-2.04 -1.6,-0.56 -3.19,-0.92 -4.75,-1.12l0 -7.12 35.81 -2.57 1.11 1.25 0 10.61 0.58 0.2c3.24,-4.32 6.83,-7.68 10.77,-10.05 3.94,-2.41 7.83,-3.59 11.7,-3.59 10.14,0 18.16,4.71 24.03,14.17 5.87,9.42 8.81,21.85 8.81,37.28zm-26.37 0.36c0,-4.85 -0.28,-9.49 -0.8,-13.91 -0.55,-4.42 -1.51,-8.37 -2.86,-11.87 -1.33,-3.46 -3.09,-6.23 -5.25,-8.31 -2.18,-2.07 -4.85,-3.1 -7.99,-3.1 -3.19,0 -5.72,0.73 -7.63,2.18 -1.9,1.45 -3.56,3.33 -4.99,5.67l0 54.88c0.3,1.29 0.85,2.94 1.68,4.98 0.83,2.04 1.68,3.66 2.51,4.88 1.23,1.74 2.61,3.03 4.2,3.89 1.55,0.82 3.26,1.25 5.12,1.25 4.85,0 8.74,-3.43 11.65,-10.32 2.91,-6.85 4.37,-16.94 4.37,-30.22zm195.21 23.7c-1.71,3.66 -3.79,7.12 -6.2,10.38 -2.44,3.23 -5.19,6 -8.28,8.34 -3.26,2.44 -6.58,4.28 -9.94,5.54 -3.36,1.25 -7.21,1.88 -11.57,1.88 -7.26,0 -13.51,-1.35 -18.78,-4.06 -5.25,-2.7 -9.62,-6.33 -13.03,-10.91 -3.44,-4.58 -6,-9.95 -7.69,-16.18 -1.68,-6.2 -2.54,-12.95 -2.54,-20.2 0,-6.56 0.93,-12.85 2.76,-18.89 1.83,-6 4.44,-11.37 7.83,-16.05 3.32,-4.58 7.53,-8.27 12.61,-11.11 5.07,-2.84 10.75,-4.25 17,-4.25 6.88,0 12.51,1.09 16.92,3.3 4.4,2.17 8.06,5.21 10.95,9.06 2.78,3.66 4.82,7.98 6.1,12.95 1.28,4.98 1.91,10.22 1.91,15.69l0 6.26 -49.72 0c0,13.22 1.94,23.27 5.8,30.19 3.89,6.89 10.04,10.35 18.45,10.35 4.62,0 8.76,-1.65 12.43,-4.98 3.69,-3.33 6.83,-7.55 9.42,-12.62l5.57 5.3zm-28.02 -36.75c0,-3.82 -0.15,-7.78 -0.45,-11.8 -0.28,-4.06 -0.81,-7.35 -1.53,-9.92 -0.83,-3 -1.98,-5.27 -3.44,-6.82 -1.43,-1.55 -3.26,-2.31 -5.48,-2.31 -3.79,0 -6.81,2.5 -9.06,7.51 -2.26,4.98 -3.49,12.89 -3.69,23.73l23.66 -0.4zm188.75 -18.45c0,4.91 -1.16,9.19 -3.44,12.89 -2.31,3.72 -5.35,5.57 -9.12,5.57 -3.56,0 -6.58,-1.19 -9.04,-3.56 -2.48,-2.37 -3.72,-5.83 -3.72,-10.45 0,-2.24 0.12,-3.99 0.37,-5.24 0.23,-1.25 0.45,-2.41 0.65,-3.49 -2.23,0.13 -4.62,1.15 -7.11,3.03 -2.48,1.91 -4.67,4.45 -6.58,7.65l0 53c0,2.24 0.28,4.12 0.81,5.57 0.55,1.48 1.46,2.64 2.71,3.49 1.08,0.69 2.84,1.29 5.25,1.78 2.41,0.5 4.17,0.76 5.25,0.82l0 7.12 -49.26 0 0 -7.12c1.23,-0.13 2.46,-0.3 3.69,-0.52 1.26,-0.23 2.31,-0.53 3.21,-0.92 1.56,-0.69 2.64,-1.78 3.22,-3.26 0.58,-1.48 0.88,-3.39 0.88,-5.77l0 -56.03c0,-2.31 -0.43,-4.38 -1.26,-6.23 -0.83,-1.81 -1.83,-3.26 -3.01,-4.35 -0.88,-0.79 -1.99,-1.42 -3.34,-1.94 -1.36,-0.49 -2.84,-0.85 -4.44,-1.05l0 -7.12 35.2 -2.57 1.1 1.45 0 13.88 0.3 0c3.36,-5.14 6.95,-9.2 10.72,-12.13 3.79,-2.94 7.73,-4.38 11.85,-4.38 4.54,0 8.18,1.84 10.95,5.57 2.76,3.69 4.14,8.47 4.14,14.34zm439.43 22.41c-1.53,0.2 -2.86,0.43 -4.04,0.69 -1.18,0.23 -2.66,0.76 -4.42,1.52 -2.04,0.85 -3.34,2.24 -3.99,4.15 -0.63,1.94 -0.95,3.99 -0.95,6.1l0 15.95c0,3.23 0.03,5.8 0.07,7.78 0.05,1.98 0.13,4.38 0.23,7.29 -4.89,3.89 -12.15,7.51 -21.72,10.94 -9.59,3.4 -18.38,5.11 -26.41,5.11 -7.56,0 -14.64,-1.52 -21.24,-4.55 -6.63,-3.03 -12.43,-7.55 -17.43,-13.61 -4.99,-6 -8.94,-13.45 -11.8,-22.31 -2.86,-8.9 -4.29,-19.08 -4.29,-30.55 0,-10.68 1.36,-20.57 4.04,-29.66 2.71,-9.1 6.6,-16.91 11.7,-23.47 5,-6.52 11.1,-11.53 18.28,-15.09 7.18,-3.53 15.14,-5.3 23.88,-5.3 5.93,0 11.42,0.95 16.47,2.9 5.05,1.91 9.22,3.99 12.51,6.16l4.57 -5.3 6.33 0 0.6 50.03 -6.48 0c-3.72,-15.06 -8.18,-26.24 -13.38,-33.55 -5.17,-7.29 -11.75,-10.94 -19.68,-10.94 -9.39,0 -16.65,5.4 -21.77,16.21 -5.12,10.84 -7.69,25.74 -7.69,44.72 0,20.17 2.51,35.93 7.53,47.33 5.02,11.4 12.13,17.11 21.34,17.11 4.32,0 8.16,-0.86 11.5,-2.54 3.36,-1.71 5.98,-3.69 7.83,-5.93l0 -27.79c0,-2.31 -0.33,-4.25 -0.95,-5.8 -0.65,-1.58 -1.91,-2.97 -3.82,-4.12 -1.48,-0.89 -3.32,-1.61 -5.53,-2.21 -2.21,-0.59 -4.04,-0.99 -5.52,-1.25l0 -7.51 54.24 0 0 7.51zm158.22 -22.41c0,4.91 -1.15,9.19 -3.44,12.89 -2.31,3.72 -5.35,5.57 -9.11,5.57 -3.57,0 -6.58,-1.19 -9.04,-3.56 -2.48,-2.37 -3.72,-5.83 -3.72,-10.45 0,-2.24 0.13,-3.99 0.38,-5.24 0.23,-1.25 0.45,-2.41 0.65,-3.49 -2.23,0.13 -4.62,1.15 -7.11,3.03 -2.48,1.91 -4.67,4.45 -6.58,7.65l0 53c0,2.24 0.27,4.12 0.81,5.57 0.55,1.48 1.45,2.64 2.71,3.49 1.08,0.69 2.84,1.29 5.25,1.78 2.41,0.5 4.17,0.76 5.25,0.82l0 7.12 -49.26 0 0 -7.12c1.23,-0.13 2.46,-0.3 3.69,-0.52 1.25,-0.23 2.31,-0.53 3.21,-0.92 1.56,-0.69 2.64,-1.78 3.21,-3.26 0.58,-1.48 0.88,-3.39 0.88,-5.77l0 -56.03c0,-2.31 -0.43,-4.38 -1.26,-6.23 -0.83,-1.81 -1.83,-3.26 -3.01,-4.35 -0.88,-0.79 -1.99,-1.42 -3.34,-1.94 -1.36,-0.49 -2.84,-0.85 -4.44,-1.05l0 -7.12 35.2 -2.57 1.11 1.45 0 13.88 0.3 0c3.37,-5.14 6.96,-9.2 10.72,-12.13 3.79,-2.94 7.73,-4.38 11.85,-4.38 4.55,0 8.19,1.84 10.95,5.57 2.76,3.69 4.14,8.47 4.14,14.34z"/>
    <path class="fil4" d="M4785.42 1418.42c3.62,4.45 6.4,9.76 8.31,15.95 1.91,6.16 2.87,12.85 2.87,20.07 0,7.15 -0.95,13.87 -2.84,20.24 -1.88,6.33 -4.64,11.73 -8.26,16.25 -3.87,4.81 -8.48,8.54 -13.86,11.11 -5.37,2.57 -11.5,3.86 -18.4,3.86 -5.98,0 -11.47,-1.12 -16.52,-3.39 -5.02,-2.24 -9.47,-5.6 -13.33,-10.12 -3.72,-4.32 -6.65,-9.63 -8.81,-15.99 -2.16,-6.33 -3.24,-13.42 -3.24,-21.29 0,-7.71 0.95,-14.57 2.84,-20.6 1.88,-6 4.72,-11.37 8.48,-16.08 3.62,-4.48 8.08,-7.98 13.41,-10.45 5.32,-2.47 11.28,-3.72 17.83,-3.72 6.85,0 12.9,1.25 18.13,3.72 5.22,2.47 9.69,5.97 13.41,10.45zm-18.81 66.84c1.08,-3.59 1.88,-7.94 2.38,-13.09 0.53,-5.14 0.78,-11.11 0.78,-17.93 0,-4.48 -0.25,-9.63 -0.73,-15.39 -0.5,-5.8 -1.23,-10.35 -2.21,-13.71 -1.18,-4.02 -2.81,-7.22 -4.89,-9.52 -2.09,-2.31 -4.72,-3.46 -7.91,-3.46 -3.49,0 -6.28,1.25 -8.36,3.76 -2.09,2.51 -3.69,5.73 -4.82,9.72 -1.03,3.66 -1.73,7.94 -2.13,12.85 -0.38,4.91 -0.58,10.05 -0.58,15.36 0,7.02 0.17,12.82 0.52,17.4 0.33,4.58 1.16,9.19 2.49,13.81 1.13,3.99 2.76,7.15 4.87,9.46 2.11,2.31 4.77,3.46 8.01,3.46 2.94,0 5.48,-1.09 7.59,-3.23 2.11,-2.14 3.76,-5.3 4.99,-9.49zm246.58 -71.12c-2.26,0.46 -4.34,1.42 -6.26,2.93 -1.9,1.52 -3.54,4.32 -4.85,8.44 -3.44,10.98 -6.2,19.84 -8.26,26.57 -2.06,6.76 -4.95,16.48 -8.66,29.2 -0.81,2.64 -1.73,6.26 -2.84,10.88 -1.1,4.61 -1.98,8.41 -2.61,11.37l-14.36 0 -18.58 -65.65 -17.28 65.65 -14.24 0c-4.95,-17.53 -8.84,-31.11 -11.67,-40.8 -2.87,-9.66 -6.66,-22.41 -11.43,-38.27 -0.88,-3.03 -2.38,-5.4 -4.52,-7.15 -2.13,-1.71 -4.32,-2.77 -6.58,-3.16l0 -7.12 45.2 0 0 7.12c-1.66,0.2 -3.65,0.69 -5.95,1.55 -2.28,0.82 -3.44,1.94 -3.44,3.36 0,0.66 0.05,1.22 0.17,1.68 0.13,0.49 0.35,1.38 0.63,2.67 1.33,5.01 3.14,11.5 5.45,19.45 2.31,7.94 5.02,17.21 8.11,27.75l16.27 -63.58 14.59 0 18.61 65.49c2.84,-9.86 5.05,-17.63 6.58,-23.3 1.53,-5.67 3.49,-12.98 5.85,-21.98 0.33,-1.35 0.55,-2.54 0.63,-3.59 0.05,-1.05 0.07,-1.74 0.02,-2.07 0,-1.16 -0.45,-2.21 -1.33,-3.13 -0.88,-0.92 -1.96,-1.68 -3.19,-2.28 -1.23,-0.56 -2.41,-1.02 -3.59,-1.35 -1.16,-0.3 -2.14,-0.53 -2.91,-0.66l0 -7.12 30.43 0 0 7.12zm138.2 84.17c-3.13,1.78 -6.48,3.4 -10.04,4.85 -3.59,1.42 -7.93,2.14 -13.08,2.14 -7.63,0 -13.28,-2.44 -16.97,-7.32 -3.69,-4.88 -5.55,-11.86 -5.55,-20.93l0 -59.16 -13.26 0 0 -10.48 13.56 0 0 -29.27 23.8 0 0 29.27 20.64 0 0 10.48 -20.49 0 0 52.83c0,7.52 0.8,12.85 2.38,16.02 1.61,3.13 4.44,4.71 8.57,4.71 1.33,0 3.16,-0.13 5.52,-0.36 2.36,-0.23 3.99,-0.53 4.92,-0.82l0 8.04zm181.17 4.42l-44.14 0 0 -7.12c0.98,-0.13 2.13,-0.3 3.46,-0.49 1.3,-0.2 2.29,-0.5 2.94,-0.96 1.03,-0.69 1.76,-1.74 2.16,-3.1 0.43,-1.35 0.63,-3.33 0.63,-6l0 -45.19c0,-6.62 -0.96,-11.6 -2.84,-14.89 -1.89,-3.26 -4.57,-4.91 -8.06,-4.91 -1.99,0 -3.79,0.4 -5.5,1.15 -1.68,0.79 -3.33,1.91 -4.97,3.4 -1.43,1.28 -2.56,2.6 -3.42,3.96 -0.88,1.35 -1.58,2.54 -2.18,3.56l0 51.88c0,2.41 0.23,4.28 0.65,5.67 0.45,1.38 1.28,2.5 2.48,3.43 0.73,0.56 1.68,1.09 2.89,1.55 1.18,0.43 2.34,0.76 3.47,0.95l0 7.12 -44.75 0 0 -7.12c1.28,-0.13 2.51,-0.3 3.72,-0.49 1.21,-0.2 2.29,-0.5 3.21,-0.96 1.59,-0.76 2.67,-1.88 3.22,-3.33 0.58,-1.45 0.85,-3.36 0.85,-5.74l0 -107.51c0,-2.07 -0.38,-4.25 -1.11,-6.56 -0.73,-2.31 -1.76,-4.05 -3.06,-5.21 -0.98,-0.86 -2.41,-1.52 -4.27,-1.98 -1.83,-0.5 -3.52,-0.79 -4.97,-0.92l0 -7.12 36.56 -2.57 1.1 1.55 0 66.38 0.3 0c1.86,-2.18 3.54,-4.16 5.02,-5.93 1.51,-1.78 3.32,-3.56 5.48,-5.37 1.8,-1.55 4.19,-2.87 7.11,-3.96 2.91,-1.09 6.05,-1.65 9.44,-1.65 7.93,0 13.89,3 17.87,9 3.99,5.97 6,13.84 6,23.63l0 47.33c0,2.37 0.27,4.28 0.81,5.7 0.55,1.42 1.53,2.54 3.01,3.39 0.88,0.5 1.86,0.96 2.91,1.35 1.08,0.36 2.41,0.69 3.97,0.95l0 7.12z"/>
   </g>
  </g>
 </g>
</svg>
